<svg xmlns="http://www.w3.org/2000/svg" width="20.469" height="24.29" viewBox="0 0 20.469 24.29">
  <path id="Subtraction_5" data-name="Subtraction 5" d="M-7091.854-871.71a11.289,11.289,0,0,1-6.58-1.876,3.909,3.909,0,0,1-1.742-3.048v-6.8a3.914,3.914,0,0,1,1.742-3.048,10.65,10.65,0,0,1,5.355-1.823l.548-.048v-1.877a1.881,1.881,0,0,0-.548-1.322,1.881,1.881,0,0,0-1.325-.549h-3.188l-.141.4a3.23,3.23,0,0,1-3.042,2.15,3.229,3.229,0,0,1-3.226-3.226,3.229,3.229,0,0,1,3.226-3.226,3.229,3.229,0,0,1,3.042,2.152l.141.4h3.188a3.206,3.206,0,0,1,2.282.946,3.2,3.2,0,0,1,.944,2.28v1.877l.546.048a10.649,10.649,0,0,1,5.357,1.823,3.914,3.914,0,0,1,1.744,3.048v6.8a3.91,3.91,0,0,1-1.744,3.048A11.28,11.28,0,0,1-7091.854-871.71Zm2.977-10.922a1.337,1.337,0,0,0-1.334,1.336,1.336,1.336,0,0,0,1.334,1.334,1.336,1.336,0,0,0,1.334-1.334A1.336,1.336,0,0,0-7088.877-882.632Zm-5.341,0a1.337,1.337,0,0,0-1.334,1.336,1.336,1.336,0,0,0,1.334,1.334,1.337,1.337,0,0,0,1.336-1.334A1.338,1.338,0,0,0-7094.218-882.632Zm-6.557-12.015a1.875,1.875,0,0,0-1.873,1.872,1.874,1.874,0,0,0,1.873,1.871,1.873,1.873,0,0,0,1.871-1.871A1.874,1.874,0,0,0-7100.775-894.647Z" transform="translate(7104 896)" fill="#fff"/>
</svg>
